<?xml version="1.0" encoding="UTF-8"?>
<svg id="Layer_1" data-name="Layer 1" xmlns="http://www.w3.org/2000/svg" viewBox="0 0 157.78 226.72">
  <defs>
    <style>
      .cls-1 {
        fill: #231f20;
      }

      .cls-1, .cls-2 {
        stroke-width: 0px;
      }

      .cls-2 {
        fill: #fff;
      }
    </style>
  </defs>
  <path class="cls-1" d="M157.22,151.92c-5.73-51.42-55.6-76.75-55.6-128.36,0-20.3,14-21.05,7.84-23.56-41.45,0-52.15,44.09-59.62,73.86-7.24-17.86-16.58-32.05-29.09-30.15-2.77,2.96,4.5,2.61,7.53,22.69C36.23,119.14.1,110.95.02,158.88c0,.17-.02.33-.02.51,0,.3.03.61.05.93,0,.81.08,2.51.08,2.51.65,10.13,4.14,19.82,10.28,28.47l-3.31,14.02c-1.23,5.2-.03,10.6,3.29,14.78,3.32,4.2,8.31,6.61,13.66,6.61,2.71,0,5.42-.65,7.84-1.88l14.32-7.23c10.2,3.72,21.35,5.66,32.68,5.66,42.58,0,77.35-27.46,78.83-61.65,0,0,.03-.76.03-1.15s.03-.73.03-1.1c0-2.53-.2-5.02-.56-7.48ZM142.12,161.64c-.05.71-.12,1.45-.2,2.16-.02.08-.02.17-.03.25-.08.66-.18,1.33-.3,1.98-.03.13-.05.28-.08.42-.12.61-.25,1.23-.4,1.84-.05.17-.08.33-.12.5-.15.58-.33,1.16-.51,1.74-.05.18-.1.38-.17.56-.18.55-.38,1.1-.58,1.64-.08.2-.15.42-.23.61-.22.53-.43,1.05-.66,1.58l-.3.65c-.23.5-.48,1-.73,1.5-.12.22-.23.45-.35.68-.27.47-.53.95-.81,1.41-.13.23-.27.47-.42.7-.28.47-.56.91-.86,1.36-.17.23-.32.48-.48.71-.3.43-.61.86-.93,1.28-.18.25-.37.5-.55.73-.32.42-.65.81-.98,1.23-.22.23-.42.48-.61.71-.35.4-.68.78-1.05,1.16-.22.25-.45.5-.66.73-.37.37-.71.73-1.1,1.1-.23.25-.48.48-.73.73-.38.35-.75.7-1.13,1.03-.27.25-.53.48-.81.71-.38.33-.76.66-1.16.98-.28.23-.58.48-.88.7-.4.32-.8.63-1.2.93-.32.23-.63.45-.95.68-.4.3-.81.58-1.23.86-.33.23-.68.45-1.01.66-.42.27-.83.55-1.26.81-.35.22-.71.42-1.08.63-.42.25-.85.51-1.28.75-.38.22-.76.42-1.15.61-.43.23-.86.47-1.31.7-.4.2-.8.38-1.2.58-.45.22-.9.43-1.35.63-.42.2-.83.38-1.26.55-.45.2-.9.4-1.35.58-.45.18-.88.35-1.33.51-.45.18-.91.35-1.36.51-.47.17-.93.33-1.4.48-.45.17-.91.32-1.38.47-.48.15-.96.3-1.45.43-.47.13-.91.28-1.4.42-.5.13-1,.25-1.51.38-.47.12-.91.25-1.38.35-.53.12-1.05.23-1.58.35-.47.1-.93.2-1.4.28-.53.12-1.08.2-1.63.3-.47.07-.93.17-1.4.23-.56.08-1.15.15-1.73.23-.45.07-.88.13-1.35.18-.61.07-1.25.12-1.86.18-.43.03-.83.08-1.26.12-.68.05-1.4.08-2.09.12-.37.02-.71.05-1.08.07-1.06.03-2.13.05-3.21.05-12.23,0-23.64-2.64-33.32-7.23l-20.7,10.47c-.15.08-.32.13-.48.17-.05,0-.1.02-.15.02-.07,0-.12.02-.18.02-.05,0-.08,0-.13-.02-.05,0-.12,0-.17-.02-.1-.02-.2-.05-.3-.08-.05-.02-.1-.02-.13-.05-.13-.05-.27-.13-.38-.22t-.03-.03c-.1-.08-.2-.18-.28-.3-.03-.03-.05-.07-.08-.12-.07-.08-.12-.18-.15-.28-.02-.05-.05-.08-.07-.15-.03-.1-.05-.2-.07-.32,0-.05-.02-.1-.02-.15,0-.17,0-.33.05-.5l5.05-21.48c-.53-.56-1.06-1.16-1.56-1.76-.15-.17-.28-.35-.43-.51-.37-.45-.73-.9-1.08-1.36-.13-.17-.28-.35-.42-.53-.4-.53-.78-1.08-1.16-1.64-.05-.07-.12-.15-.17-.23-.45-.68-.88-1.36-1.3-2.06-.02-.02-.02-.03-.03-.05-.4-.66-.76-1.33-1.11-2.01-.05-.1-.1-.2-.15-.28-.33-.66-.65-1.33-.95-1.99-.03-.03-.05-.08-.07-.13-.66-1.48-1.23-3.01-1.69-4.55-1.06-3.51-1.63-7.16-1.63-10.9,0-26.68,28.34-48.31,63.29-48.31s63.29,21.63,63.29,48.31c0,.75-.03,1.5-.07,2.24Z"/>
  <path class="cls-2" d="M142.18,159.39c0,.75-.03,1.5-.07,2.24-.05.71-.12,1.45-.2,2.16-.02.08-.02.17-.03.25-.08.66-.18,1.33-.3,1.98-.03.13-.05.28-.08.42-.12.61-.25,1.23-.4,1.84-.05.17-.08.33-.12.5-.15.58-.33,1.16-.51,1.74-.05.18-.1.38-.17.56-.18.55-.38,1.1-.58,1.64-.08.2-.15.42-.23.61-.22.53-.43,1.05-.66,1.58l-.3.65c-.23.5-.48,1-.73,1.5-.12.22-.23.45-.35.68-.27.47-.53.95-.81,1.41-.13.23-.27.47-.42.7-.28.47-.56.91-.86,1.36-.17.23-.32.48-.48.71-.3.43-.61.86-.93,1.28-.18.25-.37.5-.55.73-.32.42-.65.81-.98,1.23-.22.23-.42.48-.61.71-.35.4-.68.78-1.05,1.16-.22.25-.45.5-.66.73-.37.37-.71.73-1.1,1.1-.23.25-.48.48-.73.73-.38.35-.75.7-1.13,1.03-.27.25-.53.48-.81.71-.38.33-.76.66-1.16.98-.28.23-.58.48-.88.7-.4.32-.8.63-1.2.93-.32.23-.63.45-.95.68-.4.3-.81.58-1.23.86-.33.23-.68.45-1.01.66-.42.27-.83.55-1.26.81-.35.22-.71.42-1.08.63-.42.25-.85.51-1.28.75-.38.22-.76.42-1.15.61-.43.23-.86.47-1.31.7-.4.2-.8.38-1.2.58-.45.22-.9.43-1.35.63-.42.2-.83.38-1.26.55-.45.2-.9.4-1.35.58-.45.18-.88.35-1.33.51-.45.18-.91.35-1.36.51-.47.17-.93.33-1.4.48-.45.17-.91.32-1.38.47-.48.15-.96.3-1.45.43-.47.13-.91.28-1.4.42-.5.13-1,.25-1.51.38-.47.12-.91.25-1.38.35-.53.12-1.05.23-1.58.35-.47.1-.93.2-1.4.28-.53.12-1.08.2-1.63.3-.47.07-.93.17-1.4.23-.56.08-1.15.15-1.73.23-.45.07-.88.13-1.35.18-.61.07-1.25.12-1.86.18-.43.03-.83.08-1.26.12-.68.05-1.4.08-2.09.12-.37.02-.71.05-1.08.07-1.06.03-2.13.05-3.21.05-12.23,0-23.64-2.64-33.32-7.23l-20.7,10.47c-.15.08-.32.13-.48.17-.05,0-.1.02-.15.02-.07,0-.12.02-.18.02-.05,0-.08,0-.13-.02-.05,0-.12,0-.17-.02-.1-.02-.2-.05-.3-.08-.05-.02-.1-.02-.13-.05-.13-.05-.27-.13-.38-.22t-.03-.03c-.1-.08-.2-.18-.28-.3-.03-.03-.05-.07-.08-.12-.07-.08-.12-.18-.15-.28-.02-.05-.05-.08-.07-.15-.03-.1-.05-.2-.07-.32,0-.05-.02-.1-.02-.15,0-.17,0-.33.05-.5l5.05-21.48c-.53-.56-1.06-1.16-1.56-1.76-.15-.17-.28-.35-.43-.51-.37-.45-.73-.9-1.08-1.36-.13-.17-.28-.35-.42-.53-.4-.53-.78-1.08-1.16-1.64-.05-.07-.12-.15-.17-.23-.45-.68-.88-1.36-1.3-2.06-.02-.02-.02-.03-.03-.05-.4-.66-.76-1.33-1.11-2.01-.05-.1-.1-.2-.15-.28-.33-.66-.65-1.33-.95-1.99-.03-.03-.05-.08-.07-.13-.66-1.48-1.23-3.01-1.69-4.55-1.06-3.51-1.63-7.16-1.63-10.9,0-26.68,28.34-48.31,63.29-48.31s63.29,21.63,63.29,48.31Z"/>
  <circle class="cls-1" cx="99.49" cy="161.64" r="15.06"/>
  <circle class="cls-1" cx="58.29" cy="161.64" r="15.06"/>
</svg>